Coordinates
version=1
nRows=11
nColumns=36
inDegrees=yes

Units are S.I. units (second, meters, Newtons, ...)
If the header above contains a line with 'inDegrees', this indicates whether rotational values are in degrees (yes) or radians (no).

endheader
time	pelvis_tilt	pelvis_list	pelvis_rotation	pelvis_tx	pelvis_ty	pelvis_tz	hip_flexion_r	hip_adduction_r	hip_rotation_r	knee_angle_r	knee_angle_r_beta	ankle_angle_r	subtalar_angle_r	mtp_angle_r	hip_flexion_l	hip_adduction_l	hip_rotation_l	knee_angle_l	knee_angle_l_beta	ankle_angle_l	subtalar_angle_l	mtp_angle_l	lumbar_extension	lumbar_bending	lumbar_rotation	arm_flex_r	arm_add_r	arm_rot_r	elbow_flex_r	pro_sup_r	arm_flex_l	arm_add_l	arm_rot_l	elbow_flex_l	pro_sup_l
      0.00000000	     -2.31090230	      0.71981007	      1.49879662	      0.34322866	      0.92452178	      0.00929148	      0.15230254	     -6.39859991	     -5.12885550	      6.79281139	      0.11855692	      1.87323718	    -12.57842347	     -6.15097700	     -0.52572681	     -9.55550981	     -3.28092392	      6.69664679	      0.11687854	      6.64599574	      1.15948008	     -6.15097700	      0.37099293	     -0.94734930	     -4.36354761	     54.82930555	     17.36608224	     66.89890913	    120.17886528	    103.38174836	     43.79928509	      6.70000327	     63.16894404	    123.88447059	    101.71996227
      0.01666670	     -3.62802596	      1.10693407	      0.99152732	      0.34880020	      0.92002219	      0.00641815	      0.94651496	     -7.06036400	     -5.36864225	      5.80271655	      0.10127651	      3.97988422	    -10.19344781	     -6.17452592	      0.39061040	     -8.75085316	     -3.53353475	      5.85649559	      0.10221513	      6.37846589	      2.46831387	     -6.17452592	      3.07512986	     -1.12454305	     -4.81716447	     57.58990460	     17.60094244	     66.18957615	    121.68735925	    103.44340252	     43.67416334	      6.29899130	     61.80520136	    126.68074975	    101.19639188
      0.03333330	     -4.89813679	      1.21606195	      0.92664408	      0.34535164	      0.91733170	      0.01004818	      2.18620883	     -7.23115500	     -6.56727006	      5.23452673	      0.09135973	      4.34105613	     -8.79879523	     -6.20741963	      1.99290221	     -8.76470165	     -3.70424235	      6.07263620	      0.10598750	      6.27744095	      3.99078871	     -6.20741963	      4.73464037	     -1.43698069	     -4.73635058	     58.22855533	     18.01196609	     66.51764063	    122.43192322	    103.61601609	     43.48714320	      5.63297208	     61.13519044	    127.61185022	    100.46590381
      0.05000000	     -5.00561702	      1.54789340	      0.94404607	      0.34559402	      0.91710466	      0.01047150	      2.11386431	     -7.56685804	     -7.19845884	      4.66218664	      0.08137051	      5.14750482	     -7.16864821	     -6.49414981	      1.82948046	     -8.64618727	     -4.00279849	      5.62797609	      0.09822671	      5.55191257	      4.39051522	     -6.49414981	      5.13337687	     -2.04262266	     -4.28273969	     58.66440027	     17.81470615	     67.46008030	    122.22220041	    102.98713761	     43.88325421	      5.33050747	     61.59635405	    126.49222972	     97.18342115
      0.06666670	     -5.45031436	      1.58301944	      0.72608619	      0.34538046	      0.91376530	      0.01082816	      2.82619770	     -7.56952761	     -7.32369930	      4.91636833	      0.08580681	      5.88177126	     -6.80168104	     -6.64337689	      2.20445754	     -8.83310474	     -3.89009550	      5.92771089	      0.10345807	      5.42296509	      4.22035078	     -6.64337689	      5.77841465	     -2.10032180	     -3.90641675	     58.82535906	     17.74312580	     69.15658477	    122.43295043	    100.62981074	     43.91689959	      5.05197388	     61.67419214	    125.64919293	     94.61011119
      0.08333330	     -5.43185801	      1.76199462	      0.51464754	      0.34595110	      0.91673993	      0.01124396	      2.94420512	     -7.69016757	     -7.34372687	      5.02445712	      0.08769332	      6.03344531	     -6.47083850	     -6.70575720	      2.22214697	     -8.76600478	     -4.24415354	      6.23937470	      0.10889763	      4.95345864	      3.84255954	     -6.70575720	      5.79134037	     -2.37307149	     -3.55952260	     58.61588377	     17.31306652	     70.35481333	    121.80774456	     99.91333572	     43.80251547	      4.78951215	     61.82876600	    124.85661142	     93.37001719
      0.10000000	     -5.40032042	      1.82624435	      0.34048039	      0.34600847	      0.91257466	      0.01127427	      3.10340374	     -7.79005031	     -7.59697580	      5.34185737	      0.09323300	      6.81449325	     -5.79054926	     -6.73618996	      2.25687455	     -8.78051691	     -4.44672244	      6.60449634	      0.11527021	      4.94039525	      3.30282540	     -6.73618996	      5.80679360	     -2.45005863	     -3.51657036	     58.69805880	     17.10234216	     70.61777097	    121.21691104	    100.79334894	     43.69268152	      4.62375546	     61.77313317	    124.55891780	     92.35630858
      0.11666670	     -5.58714019	      1.91213244	      0.41359864	      0.34567432	      0.91521601	      0.01161624	      3.32415632	     -7.89620486	     -7.82376120	      5.42925407	      0.09475836	      6.90308451	     -5.66791949	     -6.79400555	      2.49157288	     -8.71424825	     -4.56352943	      6.65230730	      0.11610467	      4.60608508	      3.07410371	     -6.79400555	      6.06579436	     -2.66246256	     -3.49959360	     58.50847996	     16.78710082	     70.79849653	    120.87768919	     99.73884580	     43.44690096	      4.62702044	     61.89799347	    124.25153638	     91.09024217
      0.13333330	     -5.64746022	      1.97355476	      0.48521131	      0.34576208	      0.91573629	      0.01154426	      3.33793371	     -7.96143772	     -8.02172579	      5.46352012	      0.09535641	      6.95877658	     -5.40741993	     -6.88389206	      2.51470760	     -8.67974249	     -4.70518718	      6.54982817	      0.11431607	      4.55364837	      3.35452076	     -6.88389206	      6.03792308	     -2.76452383	     -3.59681040	     58.46039848	     16.60180358	     70.88230551	    120.67787384	     98.30057225	     43.30430854	      4.64031485	     62.10158728	    124.34466915	     89.43549659
      0.15000000	     -5.69876682	      1.96820313	      0.46713685	      0.34576782	      0.91563096	      0.01146593	      3.41171064	     -7.98320874	     -8.18804278	      5.52936101	      0.09650556	      7.20638759	     -5.01282007	     -6.96904377	      2.56105701	     -8.66886673	     -4.48258203	      6.46470145	      0.11283033	      4.76476701	      3.67095025	     -6.96904377	      6.12039693	     -2.77980089	     -3.73726643	     58.40224338	     16.54556473	     70.80937612	    120.61709640	     96.87732039	     43.08408402	      4.67414036	     62.09905291	    124.53968749	     87.71545188
      0.16666670	     -5.67298553	      1.97189440	      0.46979000	      0.34626635	      0.91828677	      0.01118132	      3.31150922	     -7.99792110	     -8.33196174	      5.43785565	      0.09490849	      7.28727482	     -4.53574332	     -7.10370765	      2.60893087	     -8.64579917	     -4.36050706	      6.47951776	      0.11308892	      4.87218631	      4.06716517	     -7.10370765	      6.06561229	     -2.78993386	     -3.98503643	     58.25307742	     16.55408776	     70.77038211	    120.55468484	     99.72140329	     42.70643673	      4.58286413	     62.22856523	    124.71983307	     89.61029227
